<svg width="272" height="62" viewBox="0 0 272 62" fill="none" xmlns="http://www.w3.org/2000/svg">
<path d="M41.9402 13.5192C43.8815 11.1729 45.0686 8.17017 45.0686 4.88813C45.0686 2.17871 42.8759 0 40.1805 0C37.485 0 35.2923 2.19268 35.2923 4.88813C35.2923 6.94115 33.6164 8.61708 31.5634 8.61708H13.5192C6.06129 8.61708 0 14.6784 0 22.1363C0 29.5942 6.06129 35.6554 13.5192 35.6554H31.5634C33.6164 35.6554 35.2923 37.3314 35.2923 39.3844C35.2923 41.4374 33.6164 43.1133 31.5634 43.1133H13.5192C6.06129 43.1133 0 49.1746 0 56.6325C0 59.342 2.19268 61.5207 4.88813 61.5207C7.58359 61.5207 9.77627 59.328 9.77627 56.6325C9.77627 54.5795 11.4522 52.9036 13.5052 52.9036H31.5494C39.0073 52.9036 45.0686 46.8423 45.0686 39.3844C45.0686 36.1024 43.8955 33.0997 41.9402 30.7534C43.8815 28.407 45.0686 25.4043 45.0686 22.1223C45.0686 18.8403 43.8955 15.8376 41.9402 13.4913V13.5192ZM13.4913 25.8792C11.4382 25.8792 9.7623 24.2032 9.7623 22.1502C9.7623 20.0972 11.4382 18.4213 13.4913 18.4213H31.5355C33.5885 18.4213 35.2644 20.0972 35.2644 22.1502C35.2644 24.2032 33.5885 25.8792 31.5355 25.8792H13.4913Z" fill="white"/>
<path d="M92.9562 42.5581C86.0752 42.5581 81.0686 37.5868 81.0686 30.7729C81.0686 23.9589 85.7669 18.9629 92.6849 18.9629C96.0144 18.9629 98.382 19.9275 101.107 22.4502C101.379 22.7099 101.527 23.0315 101.527 23.3777C101.527 23.6869 101.391 23.996 101.157 24.2681L99.7262 25.851C99.4672 26.1478 99.1466 26.2962 98.8136 26.2962C98.5177 26.2962 98.2341 26.1849 97.9504 25.9499C96.1007 24.4041 94.6086 23.8229 92.6725 23.8229C89.0471 23.8229 86.4081 26.7414 86.4081 30.7481C86.4081 34.7549 89.1951 37.6981 92.9315 37.6981C94.2756 37.6981 95.7554 37.2405 96.9146 36.4986V34.1984H92.2533C91.5011 34.1984 91.0078 33.6914 91.0078 32.9494V30.6245C91.0078 29.8701 91.5134 29.3755 92.2533 29.3755H100.935C101.687 29.3631 102.18 29.8701 102.18 30.6121V37.6486C102.18 38.4154 101.773 39.2439 101.206 39.6891C98.5053 41.7419 96.113 42.5581 92.9562 42.5581Z" fill="white"/>
<path d="M125.578 34.9201H122.673V41.2621C122.673 42.042 122.172 42.5535 121.415 42.5535H118.644C117.899 42.5535 117.411 42.0293 117.411 41.2621V20.2799C117.411 19.4871 117.911 18.9629 118.644 18.9629H126.543C131.878 18.9629 135.43 22.1339 135.43 26.9799C135.43 29.9974 133.745 32.5035 131.304 33.9356L136.724 40.8018C137.029 41.1854 137.176 41.5306 137.176 41.8119C137.176 42.2722 136.761 42.5535 135.943 42.5535H132.5C131.939 42.5535 131.328 42.2466 130.974 41.7991L125.59 34.9073L125.578 34.9201ZM122.673 29.9079H127.043C128.911 29.9079 130.12 28.8083 130.12 26.9926C130.12 25.177 128.911 24.0007 127.043 24.0007H122.673V29.9079Z" fill="white"/>
<path d="M168.447 18.9629C169.2 18.9629 169.693 19.4871 169.693 20.2799V22.6709C169.693 23.4636 169.187 23.9879 168.447 23.9879H157.818V27.9772L166.147 27.9772C166.912 27.9772 167.393 28.5014 167.393 29.2942V31.698C167.393 32.4779 166.9 32.9894 166.147 32.9894L157.818 32.9894V37.5413H168.447C169.2 37.5413 169.693 38.0655 169.693 38.8583V41.2621C169.693 42.042 169.187 42.5535 168.447 42.5535H153.748C152.984 42.5535 152.478 42.0293 152.478 41.2621V20.2799C152.478 19.4871 152.984 18.9629 153.748 18.9629H168.447Z" fill="white"/>
<path d="M203.479 18.9629C204.25 18.9629 204.76 19.4871 204.76 20.2799V22.6709C204.76 23.4636 204.25 23.9879 203.479 23.9879H197.575V41.2621C197.575 42.042 197.078 42.5535 196.319 42.5535H193.51C192.752 42.5535 192.254 42.0293 192.254 41.2621V23.9879H186.275C185.504 23.9879 184.995 23.4636 184.995 22.6709V20.2799C184.995 19.4871 185.504 18.9629 186.275 18.9629H203.492H203.479Z" fill="white"/>
<path d="M238.547 18.9629C239.317 18.9629 239.827 19.4871 239.827 20.2799V22.6709C239.827 23.4636 239.317 23.9879 238.547 23.9879H232.642V41.2621C232.642 42.042 232.145 42.5535 231.386 42.5535H228.577C227.819 42.5535 227.322 42.0293 227.322 41.2621V23.9879H221.342C220.572 23.9879 220.062 23.4636 220.062 22.6709V20.2799C220.062 19.4871 220.572 18.9629 221.342 18.9629H238.559H238.547Z" fill="white"/>
<path d="M270.883 40.7624C271.019 41.0439 271.069 41.2998 271.069 41.5428C271.069 42.1697 270.61 42.5535 269.766 42.5535H266.69C266.12 42.5535 265.574 42.1825 265.363 41.6452L263.552 37.1804H254.994L253.196 41.6452C252.973 42.1825 252.439 42.5535 251.869 42.5535H248.78C247.937 42.5535 247.478 42.1697 247.478 41.53C247.478 41.3126 247.54 41.0567 247.652 40.7752L256.706 19.8712C256.954 19.3339 257.487 18.9629 258.058 18.9629H260.464C261.034 18.9629 261.58 19.3339 261.803 19.8712L270.883 40.7752V40.7624ZM260.203 28.11C259.807 27.0098 259.484 25.7817 259.323 25.2315H259.186C259.013 25.8072 258.653 26.9842 258.269 28.0588L256.718 32.626H261.816L260.203 28.11Z" fill="white"/>
</svg>
