<svg width="80" height="24" viewBox="0 0 80 24" fill="none" xmlns="http://www.w3.org/2000/svg">
<g id="Layer_1" clip-path="url(#clip0_10057_12219)">
<path id="Vector" d="M65.2758 19.2974C65.2758 20.0567 65.253 20.816 65.2808 21.5728C65.3213 22.6207 64.7695 23.17 63.8634 23.5952C62.9826 24.0103 62.3169 23.742 61.7449 23.1497C61.2437 22.6334 60.9729 22.5676 60.2414 22.9776C56.6371 24.9898 51.9596 23.7724 49.4943 20.5958C46.4013 16.6093 46.91 11.1902 51.2762 7.83396C53.8883 5.82679 58.3355 5.59899 61.5803 7.81371C63.2078 8.92487 64.2329 10.4385 64.8202 12.2963C65.5086 14.4756 65.5339 14.4148 67.8448 13.7897C69.4445 13.3543 70.7278 12.4583 71.9301 11.418C73.4867 10.074 75.6938 9.71204 77.415 10.6207C79.3943 11.6661 80.1638 13.2429 79.9739 15.5235C79.8145 17.4167 79.0222 18.7734 77.2125 19.4923C75.1927 20.2972 73.3652 20.0845 71.7908 18.5254C70.2038 16.9561 68.227 16.2777 66.0882 15.9436C65.5668 15.8626 65.2125 15.9436 65.2606 16.6397C65.3213 17.5205 65.2758 18.4089 65.2758 19.2948V19.2974ZM64.9695 14.9236C64.7999 14.7034 65.458 13.9922 64.524 13.9112C62.5498 13.7416 61.021 12.6481 59.601 11.3978C58.0798 10.0588 56.0423 9.76266 54.2376 10.5929C52.2937 11.4889 51.4356 13.1366 51.4711 15.0907C51.504 16.9358 52.238 18.6899 54.1237 19.4518C56.3182 20.3377 58.0697 20.1276 59.7832 18.533C60.9931 17.4092 62.3473 16.4094 64.0178 16.2448C64.9619 16.1512 65.1695 15.8652 64.967 14.9236H64.9695Z" fill="white"/>
<path id="Vector_2" d="M25.0543 6.32806C26.6312 6.19138 28.289 6.53055 29.6432 7.78598C30.4607 8.54278 30.6177 9.48436 30.1165 10.4867C29.6533 11.4131 28.7851 11.5042 27.9119 11.3675C27.3196 11.2739 26.8817 10.7803 26.2819 10.5727C25.4415 10.2842 24.6265 10.3702 23.8166 10.4209C23.4116 10.4462 22.794 10.6056 22.7611 11.2739C22.7307 11.9218 23.0876 12.218 23.6774 12.4129C25.0998 12.8887 26.5426 13.3316 27.9018 13.9543C30.1697 14.9971 31.2682 16.7891 31.1087 18.8849C30.9391 21.1072 29.4483 22.9904 27.0893 23.6105C23.976 24.4306 21.0678 24.0458 18.6961 21.6134C17.6078 20.4972 17.4559 19.0722 18.3063 18.2471C19.1694 17.4093 20.716 17.5156 21.7183 18.5964C22.7889 19.748 24.7733 20.1327 25.9275 19.5202C26.3553 19.2924 26.7856 19.1001 26.7856 18.5812C26.7856 18.1205 26.3857 17.913 26.006 17.7054C24.505 16.8828 22.832 16.4879 21.2981 15.721C17.1648 13.6531 18.0912 9.34261 20.0731 7.62399C21.0754 6.75582 22.7004 6.32806 25.0492 6.32806H25.0543Z" fill="white"/>
<path id="Vector_3" d="M45.0279 9.43852C45.033 11.1166 43.8332 11.9089 42.312 11.1242C41.2059 10.5547 40.0948 10.2713 38.8596 10.3674C38.2445 10.4155 37.6674 10.537 37.4599 11.1622C37.1992 11.9468 37.8775 12.1772 38.4015 12.3822C39.5734 12.8403 40.7731 13.22 41.9526 13.6579C44.7571 14.6982 46.1087 16.6269 45.7797 19.1301C45.4835 21.3879 43.7193 23.3292 41.0693 23.8102C38.6419 24.2506 36.4576 23.7823 34.3998 22.5193C33.6733 22.0738 33.1241 21.4664 32.8558 20.6412C32.5723 19.7654 32.2458 18.8036 33.1292 18.1405C34.0277 17.4647 35.0604 17.4748 35.9944 18.1886C36.9005 18.8796 37.7333 19.5832 38.9558 19.8161C39.586 19.9376 40.0619 19.7072 40.5833 19.649C40.9478 19.6085 41.4008 19.1681 41.4641 18.6872C41.535 18.1506 41.0844 17.938 40.6719 17.7001C39.4974 17.0243 38.1813 16.7129 36.9537 16.1839C34.5061 15.131 32.3572 13.3617 33.3848 9.87387C33.9442 7.973 35.5641 6.63911 37.6725 6.38347C39.4139 6.17338 41.2312 6.1177 42.9575 6.82388C44.1623 7.31744 45.0279 8.31723 45.0304 9.43852H45.0279Z" fill="white"/>
<path id="Vector_4" d="M4.53538 9.64607C4.53538 12.1291 4.53538 14.6146 4.53538 17.0977C4.53538 18.7252 5.09982 19.3428 6.69189 19.487C7.95491 19.6009 8.62313 20.4033 8.58516 21.7625C8.54972 22.9977 7.81317 23.7292 6.57039 23.7925C3.68493 23.9367 0.285642 21.3094 0.427384 17.9253C0.647591 12.6707 0.483069 7.40098 0.4856 2.13626C0.4856 0.503698 0.96398 0.00253775 2.4953 6.63738e-06C3.85957 -0.00252447 4.53285 0.718842 4.53285 2.19195C4.53285 4.67497 4.53285 7.16052 4.53285 9.64354L4.53538 9.64607Z" fill="white"/>
<path id="Vector_5" d="M15.4183 15.1713C15.4183 17.1937 15.4233 19.216 15.4183 21.2384C15.4132 22.7748 14.5172 23.8125 13.2314 23.7872C12.0443 23.7644 11.1179 22.6406 11.1179 21.208C11.1154 17.0772 11.1129 12.949 11.1179 8.81822C11.1204 7.28183 11.8646 6.57059 13.4238 6.57819C14.7146 6.58325 15.4107 7.36789 15.4157 8.85113C15.4233 10.957 15.4157 13.0654 15.4157 15.1713H15.4183Z" fill="white"/>
<path id="Vector_6" d="M13.2857 4.80895C11.9645 4.81402 10.8786 3.8041 10.8634 2.54867C10.8483 1.30083 11.929 0.258011 13.2477 0.252949C14.569 0.247886 15.6548 1.26033 15.67 2.51323C15.6852 3.76107 14.6044 4.80389 13.2857 4.80895Z" fill="white"/>
</g>
<defs>
<clipPath id="clip0_10057_12219">
<rect width="79.5781" height="24" fill="white" transform="translate(0.421875)"/>
</clipPath>
</defs>
</svg>
