<svg width="20" height="17" viewBox="0 0 20 17" fill="none" xmlns="http://www.w3.org/2000/svg">
<g id="Vector">
<path d="M7.75024 8.52051C7.75024 7.27787 8.7576 6.27051 10.0002 6.27051C11.2429 6.27051 12.2502 7.27787 12.2502 8.52051C12.2502 9.76315 11.2429 10.7705 10.0002 10.7705C8.7576 10.7705 7.75024 9.76315 7.75024 8.52051Z" fill="#262626"/>
<path fill-rule="evenodd" clip-rule="evenodd" d="M0.000244141 8.52051C0.000244141 10.1599 0.425208 10.712 1.27514 11.8162C2.97221 14.021 5.81836 16.5205 10.0002 16.5205C14.1821 16.5205 17.0283 14.021 18.7254 11.8162C19.5753 10.712 20.0002 10.1599 20.0002 8.52051C20.0002 6.88113 19.5753 6.32903 18.7254 5.22484C17.0283 3.02007 14.1821 0.520508 10.0002 0.520508C5.81836 0.520508 2.97221 3.02007 1.27514 5.22484C0.425208 6.32903 0.000244141 6.88113 0.000244141 8.52051ZM10.0002 4.77051C7.92918 4.77051 6.25024 6.44944 6.25024 8.52051C6.25024 10.5916 7.92918 12.2705 10.0002 12.2705C12.0713 12.2705 13.7502 10.5916 13.7502 8.52051C13.7502 6.44944 12.0713 4.77051 10.0002 4.77051Z" fill="#262626"/>
</g>
</svg>
