<svg width="12" height="13" viewBox="0 0 12 13" fill="none" xmlns="http://www.w3.org/2000/svg">
<g id="Vector">
<path d="M4.9297 10.8856C5.12061 10.7367 5.29378 10.5635 5.64006 10.2172L10.0776 5.7797C9.47363 5.52833 8.75831 5.11543 8.08179 4.43892C7.40517 3.7623 6.99225 3.04686 6.74089 2.44285L2.30329 6.88045L2.30327 6.88047C1.957 7.22675 1.78384 7.3999 1.63494 7.59081C1.45928 7.81602 1.30868 8.05969 1.18581 8.31752C1.08164 8.53609 1.00421 8.76839 0.849336 9.233L0.0326691 11.683C-0.0435433 11.9116 0.0159628 12.1637 0.186379 12.3341C0.356795 12.5045 0.608868 12.5641 0.837505 12.4878L3.28751 11.6712C3.75211 11.5163 3.98442 11.4389 4.20299 11.3347C4.46082 11.2118 4.70449 11.0612 4.9297 10.8856Z" fill="#262626"/>
<path d="M11.3089 4.54834C12.2304 3.62692 12.2304 2.133 11.3089 1.21157C10.3875 0.290152 8.89359 0.290152 7.97217 1.21157L7.43994 1.7438C7.44723 1.76581 7.45479 1.78812 7.46263 1.81072C7.65771 2.37301 8.02578 3.11011 8.71819 3.80252C9.4106 4.49493 10.1477 4.863 10.71 5.05808C10.7325 5.06588 10.7547 5.07341 10.7766 5.08067L11.3089 4.54834Z" fill="#262626"/>
</g>
</svg>
